<svg xmlns="http://www.w3.org/2000/svg" xmlns:xlink="http://www.w3.org/1999/xlink" width="500" zoomAndPan="magnify" viewBox="0 0 375 374.999991" height="500" preserveAspectRatio="xMidYMid meet" version="1.0"><defs><g/><clipPath id="6c12e5edff"><rect x="0" width="63" y="0" height="164"/></clipPath><clipPath id="c02235a1b7"><path d="M 141.3125 191.332031 L 143.359375 191.332031 L 143.359375 214.097656 L 141.3125 214.097656 Z M 141.3125 191.332031 " clip-rule="nonzero"/></clipPath><clipPath id="e4e92386cd"><path d="M 0.3125 0.332031 L 2.359375 0.332031 L 2.359375 23.097656 L 0.3125 23.097656 Z M 0.3125 0.332031 " clip-rule="nonzero"/></clipPath><clipPath id="e71c67423e"><rect x="0" width="3" y="0" height="24"/></clipPath><clipPath id="c46d6d7202"><path d="M 147.453125 190.105469 L 150.90625 190.105469 L 150.90625 212.871094 L 147.453125 212.871094 Z M 147.453125 190.105469 " clip-rule="nonzero"/></clipPath><clipPath id="c21f44cf83"><path d="M 0.453125 0.105469 L 3.90625 0.105469 L 3.90625 22.871094 L 0.453125 22.871094 Z M 0.453125 0.105469 " clip-rule="nonzero"/></clipPath><clipPath id="cdfa2fb470"><rect x="0" width="4" y="0" height="23"/></clipPath><clipPath id="5301919cd4"><path d="M 139 198 L 143 198 L 143 203 L 139 203 Z M 139 198 " clip-rule="nonzero"/></clipPath><clipPath id="50f3d53679"><path d="M 140.875 198 L 142.882812 198.550781 L 141.742188 202.726562 L 139.734375 202.175781 Z M 140.875 198 " clip-rule="nonzero"/></clipPath><clipPath id="2a70400304"><path d="M 0.679688 0 L 4 0 L 4 4.800781 L 0.679688 4.800781 Z M 0.679688 0 " clip-rule="nonzero"/></clipPath><clipPath id="25ab1a27dd"><path d="M 1.875 0 L 3.882812 0.550781 L 2.742188 4.726562 L 0.734375 4.175781 Z M 1.875 0 " clip-rule="nonzero"/></clipPath><clipPath id="50fda6eb53"><rect x="0" width="4" y="0" height="5"/></clipPath><clipPath id="13963c385a"><rect x="0" width="101" y="0" height="17"/></clipPath><clipPath id="ca5b5d562b"><path d="M 168 198 L 172 198 L 172 203 L 168 203 Z M 168 198 " clip-rule="nonzero"/></clipPath><clipPath id="acc9ef2ffb"><path d="M 169.367188 198 L 171.375 198.550781 L 170.234375 202.726562 L 168.226562 202.175781 Z M 169.367188 198 " clip-rule="nonzero"/></clipPath><clipPath id="33e5166c6d"><path d="M 0 0 L 3.601562 0 L 3.601562 4.800781 L 0 4.800781 Z M 0 0 " clip-rule="nonzero"/></clipPath><clipPath id="80dd905115"><path d="M 1.367188 0 L 3.375 0.550781 L 2.234375 4.726562 L 0.226562 4.175781 Z M 1.367188 0 " clip-rule="nonzero"/></clipPath><clipPath id="c54bec3715"><rect x="0" width="4" y="0" height="5"/></clipPath><clipPath id="200004c817"><path d="M 100 118 L 108 118 L 108 124 L 100 124 Z M 100 118 " clip-rule="nonzero"/></clipPath><clipPath id="5a7f88363c"><path d="M 101.539062 123.578125 L 100.628906 121.707031 L 106.328125 118.945312 L 107.234375 120.820312 Z M 101.539062 123.578125 " clip-rule="nonzero"/></clipPath><clipPath id="882074b0f2"><path d="M 0.558594 0.800781 L 7.28125 0.800781 L 7.28125 5.601562 L 0.558594 5.601562 Z M 0.558594 0.800781 " clip-rule="nonzero"/></clipPath><clipPath id="f960718d9f"><path d="M 1.539062 5.578125 L 0.628906 3.707031 L 6.328125 0.945312 L 7.234375 2.820312 Z M 1.539062 5.578125 " clip-rule="nonzero"/></clipPath><clipPath id="3d5f7b41fc"><rect x="0" width="8" y="0" height="6"/></clipPath></defs><g transform="matrix(1, 0, 0, 1, 108, 71)"><g clip-path="url(#6c12e5edff)"><g fill="#0b0950" fill-opacity="1"><g transform="translate(1.321109, 130.889766)"><g><path d="M 11.671875 0 L 11.671875 -92.125 L 15.703125 -92.125 L 15.703125 -3.5 L 60.46875 -3.5 L 59.8125 0 Z M 11.671875 0 "/></g></g></g></g></g><g fill="#0b0950" fill-opacity="1"><g transform="translate(131.971775, 219.371551)"><g><path d="M 15.578125 0 L 11.59375 0 L 11.59375 -91.40625 L 38.625 -91.40625 C 48.5 -91.40625 56.179688 -89.195312 61.671875 -84.78125 C 67.160156 -80.363281 69.90625 -74.207031 69.90625 -66.3125 C 69.90625 -48.539062 58.40625 -39.65625 35.40625 -39.65625 L 15.578125 -39.65625 Z M 37.46875 -87.9375 L 15.578125 -87.9375 L 15.578125 -43.265625 L 35.53125 -43.265625 C 46.09375 -43.265625 53.796875 -45.066406 58.640625 -48.671875 C 63.492188 -52.273438 65.921875 -58.109375 65.921875 -66.171875 C 65.921875 -73.640625 63.554688 -79.132812 58.828125 -82.65625 C 54.109375 -86.175781 46.988281 -87.9375 37.46875 -87.9375 Z M 37.46875 -87.9375 "/></g></g></g><g clip-path="url(#c02235a1b7)"><g transform="matrix(1, 0, 0, 1, 141, 191)"><g clip-path="url(#e71c67423e)"><g clip-path="url(#e4e92386cd)"><path fill="#ffffff" d="M 0.3125 23.097656 L 0.3125 0.335938 L 2.359375 0.335938 L 2.359375 23.097656 Z M 0.3125 23.097656 " fill-opacity="1" fill-rule="nonzero"/></g></g></g></g><path stroke-linecap="butt" transform="matrix(0.00148104, 0.749998, -0.749998, 0.00148104, 143.730801, 121.046901)" fill="none" stroke-linejoin="miter" d="M -0.0010227 0.500443 L 137.0253 0.500198 " stroke="#ffffff" stroke-width="1" stroke-opacity="1" stroke-miterlimit="4"/><g clip-path="url(#c46d6d7202)"><g transform="matrix(1, 0, 0, 1, 147, 190)"><g clip-path="url(#cdfa2fb470)"><g clip-path="url(#c21f44cf83)"><path fill="#ffffff" d="M 0.453125 22.871094 L 0.453125 0.105469 L 3.90625 0.105469 L 3.90625 22.871094 Z M 0.453125 22.871094 " fill-opacity="1" fill-rule="nonzero"/></g></g></g></g><g clip-path="url(#5301919cd4)"><g clip-path="url(#50f3d53679)"><g transform="matrix(1, 0, 0, 1, 139, 198)"><g clip-path="url(#50fda6eb53)"><g clip-path="url(#2a70400304)"><g clip-path="url(#25ab1a27dd)"><path fill="#ffffff" d="M 1.875 0 L 3.882812 0.550781 L 2.742188 4.722656 L 0.734375 4.175781 Z M 1.875 0 " fill-opacity="1" fill-rule="nonzero"/></g></g></g></g></g></g><g transform="matrix(1, 0, 0, 1, 172, 191)"><g clip-path="url(#13963c385a)"><g fill="#0b0950" fill-opacity="1"><g transform="translate(0.758242, 13.211445)"><g><path d="M 2.875 0 L 0.84375 0 L 0.84375 -9.015625 L 4.15625 -9.015625 C 5.425781 -9.015625 6.378906 -8.769531 7.015625 -8.28125 C 7.648438 -7.789062 7.96875 -7.078125 7.96875 -6.140625 C 7.96875 -5.210938 7.609375 -4.476562 6.890625 -3.9375 C 6.179688 -3.40625 5.175781 -3.140625 3.875 -3.140625 L 2.875 -3.140625 Z M 4.15625 -7.328125 L 2.875 -7.328125 L 2.875 -4.859375 L 3.984375 -4.859375 C 4.628906 -4.859375 5.109375 -4.953125 5.421875 -5.140625 C 5.742188 -5.335938 5.90625 -5.660156 5.90625 -6.109375 C 5.90625 -6.554688 5.757812 -6.867188 5.46875 -7.046875 C 5.1875 -7.234375 4.75 -7.328125 4.15625 -7.328125 Z M 4.15625 -7.328125 "/></g></g></g><g fill="#0b0950" fill-opacity="1"><g transform="translate(11.955258, 13.211445)"><g><path d="M 0.84375 0 L 0.84375 -9.015625 L 2.921875 -9.015625 L 2.921875 -1.8125 L 6.8125 -1.8125 L 6.6875 0 Z M 0.84375 0 "/></g></g></g><g fill="#0b0950" fill-opacity="1"><g transform="translate(21.783118, 13.211445)"><g><path d="M 5 0.125 C 4.050781 0.132812 3.238281 -0.0351562 2.5625 -0.390625 C 1.882812 -0.742188 1.363281 -1.253906 1 -1.921875 C 0.632812 -2.597656 0.453125 -3.40625 0.453125 -4.34375 C 0.453125 -5.28125 0.644531 -6.109375 1.03125 -6.828125 C 1.414062 -7.554688 1.957031 -8.125 2.65625 -8.53125 C 3.363281 -8.9375 4.195312 -9.140625 5.15625 -9.140625 C 6.007812 -9.140625 6.757812 -8.953125 7.40625 -8.578125 C 8.050781 -8.203125 8.550781 -7.679688 8.90625 -7.015625 C 9.269531 -6.359375 9.453125 -5.582031 9.453125 -4.6875 C 9.453125 -3.71875 9.257812 -2.875 8.875 -2.15625 C 8.5 -1.4375 7.972656 -0.878906 7.296875 -0.484375 C 6.628906 -0.0859375 5.863281 0.113281 5 0.125 Z M 4.921875 -1.71875 C 5.640625 -1.71875 6.222656 -1.972656 6.671875 -2.484375 C 7.117188 -3.003906 7.34375 -3.726562 7.34375 -4.65625 C 7.34375 -5.457031 7.140625 -6.097656 6.734375 -6.578125 C 6.328125 -7.054688 5.78125 -7.296875 5.09375 -7.296875 C 4.601562 -7.296875 4.164062 -7.171875 3.78125 -6.921875 C 3.394531 -6.679688 3.09375 -6.34375 2.875 -5.90625 C 2.664062 -5.46875 2.5625 -4.957031 2.5625 -4.375 C 2.5625 -3.53125 2.769531 -2.875 3.1875 -2.40625 C 3.601562 -1.945312 4.179688 -1.71875 4.921875 -1.71875 Z M 4.921875 -1.71875 "/></g></g></g><g fill="#0b0950" fill-opacity="1"><g transform="translate(34.767643, 13.211445)"><g><path d="M 0.828125 0 L 1.140625 -9.015625 L 2.875 -9.015625 L 6.046875 -2.59375 L 9.171875 -9.015625 L 10.90625 -9.015625 L 11.15625 0 L 9.140625 0 L 9.03125 -4.6875 L 6.71875 0 L 5.203125 0 L 2.90625 -4.640625 L 2.734375 0 Z M 0.828125 0 "/></g></g></g><g fill="#0b0950" fill-opacity="1"><g transform="translate(49.843939, 13.211445)"><g><path d="M 0.84375 0 L 0.84375 -9.015625 L 4.21875 -9.015625 C 5.3125 -9.015625 6.171875 -8.800781 6.796875 -8.375 C 7.429688 -7.945312 7.75 -7.320312 7.75 -6.5 C 7.75 -6.09375 7.65625 -5.71875 7.46875 -5.375 C 7.28125 -5.039062 7.023438 -4.773438 6.703125 -4.578125 C 7.066406 -4.410156 7.359375 -4.160156 7.578125 -3.828125 C 7.804688 -3.492188 7.921875 -3.097656 7.921875 -2.640625 C 7.921875 -2.117188 7.78125 -1.65625 7.5 -1.25 C 7.226562 -0.851562 6.832031 -0.546875 6.3125 -0.328125 C 5.800781 -0.109375 5.191406 0 4.484375 0 Z M 4.265625 -7.328125 L 2.875 -7.328125 L 2.875 -5.375 L 4.140625 -5.375 C 4.671875 -5.375 5.0625 -5.453125 5.3125 -5.609375 C 5.5625 -5.773438 5.6875 -6.03125 5.6875 -6.375 C 5.6875 -6.6875 5.570312 -6.921875 5.34375 -7.078125 C 5.113281 -7.242188 4.753906 -7.328125 4.265625 -7.328125 Z M 2.875 -1.6875 L 4.453125 -1.6875 C 4.890625 -1.6875 5.234375 -1.769531 5.484375 -1.9375 C 5.734375 -2.101562 5.859375 -2.363281 5.859375 -2.71875 C 5.859375 -3.050781 5.75 -3.289062 5.53125 -3.4375 C 5.3125 -3.59375 4.953125 -3.671875 4.453125 -3.671875 L 2.875 -3.671875 Z M 2.875 -1.6875 "/></g></g></g><g fill="#0b0950" fill-opacity="1"><g transform="translate(61.129694, 13.211445)"><g><path d="M 7.015625 -7.21875 L 2.875 -7.21875 L 2.875 -5.4375 L 6.75 -5.4375 L 6.75 -3.640625 L 2.875 -3.640625 L 2.875 -1.78125 L 7.140625 -1.78125 L 7.015625 0 L 0.84375 0 L 0.84375 -9.015625 L 7.015625 -9.015625 Z M 7.015625 -7.21875 "/></g></g></g><g fill="#0b0950" fill-opacity="1"><g transform="translate(71.553393, 13.211445)"><g><path d="M 8.359375 -1.9375 L 8.84375 -0.34375 C 8.65625 -0.195312 8.414062 -0.0820312 8.125 0 C 7.832031 0.0820312 7.535156 0.125 7.234375 0.125 C 6.679688 0.125 6.195312 0.015625 5.78125 -0.203125 C 5.363281 -0.429688 5.019531 -0.757812 4.75 -1.1875 L 3.671875 -2.921875 C 3.546875 -3.117188 3.421875 -3.257812 3.296875 -3.34375 C 3.179688 -3.425781 3.039062 -3.46875 2.875 -3.46875 L 2.875 0 L 0.84375 0 L 0.84375 -9.015625 L 3.8125 -9.015625 C 5.050781 -9.015625 5.976562 -8.765625 6.59375 -8.265625 C 7.21875 -7.765625 7.53125 -7.070312 7.53125 -6.1875 C 7.53125 -5.5 7.316406 -4.929688 6.890625 -4.484375 C 6.460938 -4.046875 5.914062 -3.757812 5.25 -3.625 C 5.53125 -3.488281 5.773438 -3.265625 5.984375 -2.953125 L 6.421875 -2.296875 C 6.691406 -1.890625 7.046875 -1.6875 7.484375 -1.6875 C 7.648438 -1.6875 7.800781 -1.703125 7.9375 -1.734375 C 8.082031 -1.773438 8.222656 -1.84375 8.359375 -1.9375 Z M 3.6875 -7.328125 L 2.875 -7.328125 L 2.875 -5.09375 L 3.671875 -5.09375 C 4.304688 -5.09375 4.765625 -5.179688 5.046875 -5.359375 C 5.328125 -5.546875 5.46875 -5.832031 5.46875 -6.21875 C 5.46875 -6.601562 5.3125 -6.882812 5 -7.0625 C 4.6875 -7.238281 4.25 -7.328125 3.6875 -7.328125 Z M 3.6875 -7.328125 "/></g></g></g><g fill="#0b0950" fill-opacity="1"><g transform="translate(82.953246, 13.211445)"><g><path d="M 0.84375 0 L 0.84375 -9.015625 L 2.921875 -9.015625 L 2.921875 0 Z M 0.84375 0 "/></g></g></g><g fill="#0b0950" fill-opacity="1"><g transform="translate(89.801918, 13.211445)"><g><path d="M 7.015625 -7.21875 L 2.875 -7.21875 L 2.875 -5.4375 L 6.75 -5.4375 L 6.75 -3.640625 L 2.875 -3.640625 L 2.875 -1.78125 L 7.140625 -1.78125 L 7.015625 0 L 0.84375 0 L 0.84375 -9.015625 L 7.015625 -9.015625 Z M 7.015625 -7.21875 "/></g></g></g></g></g><g clip-path="url(#ca5b5d562b)"><g clip-path="url(#acc9ef2ffb)"><g transform="matrix(1, 0, 0, 1, 168, 198)"><g clip-path="url(#c54bec3715)"><g clip-path="url(#33e5166c6d)"><g clip-path="url(#80dd905115)"><path fill="#ffffff" d="M 1.367188 0 L 3.375 0.550781 L 2.238281 4.722656 L 0.230469 4.175781 Z M 1.367188 0 " fill-opacity="1" fill-rule="nonzero"/></g></g></g></g></g></g><g clip-path="url(#200004c817)"><g clip-path="url(#5a7f88363c)"><g transform="matrix(1, 0, 0, 1, 100, 118)"><g clip-path="url(#3d5f7b41fc)"><g clip-path="url(#882074b0f2)"><g clip-path="url(#f960718d9f)"><path fill="#ffffff" d="M 1.539062 5.578125 L 0.628906 3.707031 L 6.332031 0.945312 L 7.238281 2.820312 Z M 1.539062 5.578125 " fill-opacity="1" fill-rule="nonzero"/></g></g></g></g></g></g></svg>